<svg width="178" height="178" viewBox="0 0 178 178" fill="none" xmlns="http://www.w3.org/2000/svg">
<g id="Group 1000002024">
<g id="Rectangle 8406" filter="url(#filter0_d_231_549)">
<rect x="15" y="15" width="148" height="148" rx="74" fill="white"/>
</g>
<path id="Vector" d="M62.9821 115.016C77.628 129.661 101.37 129.661 116.016 115.016C130.661 100.371 130.661 76.6295 116.016 61.9841C101.37 47.3386 77.628 47.3386 62.9821 61.9841C48.3393 76.6295 48.3393 100.371 62.9821 115.016ZM79.617 65.1789L85.1969 70.7587C86.3129 71.8747 86.5499 73.5996 85.7759 74.9765L83.6789 78.6994C83.4271 79.1458 83.3286 79.6624 83.3985 80.1701C83.4684 80.6778 83.7029 81.1486 84.0659 81.5103L96.4888 93.9328C96.8509 94.2954 97.3219 94.5292 97.8296 94.5986C98.3373 94.6679 98.8537 94.5689 99.2998 94.3168L103.023 92.2198C103.693 91.8423 104.468 91.6946 105.229 91.7991C105.991 91.9037 106.697 92.2548 107.241 92.7988L112.824 98.3816C113.483 99.0424 113.854 99.9379 113.854 100.872C113.854 101.805 113.483 102.701 112.824 103.361L110.181 106.004C108.714 107.467 106.806 108.405 104.753 108.672C102.699 108.94 100.615 108.522 98.8228 107.483L98.5708 107.339C87.6181 101.081 78.4573 92.1138 71.967 81.2973L70.6981 79.1794C69.6194 77.3848 69.172 75.2811 69.427 73.2029C69.6819 71.1247 70.6246 69.1915 72.105 67.7108L74.637 65.1789C74.9638 64.8517 75.352 64.592 75.7792 64.4149C76.2065 64.2378 76.6645 64.1466 77.127 64.1466C77.5895 64.1466 78.0475 64.2378 78.4748 64.4149C78.902 64.592 79.2901 64.8517 79.617 65.1789Z" fill="#39CABB"/>
</g>
<defs>
<filter id="filter0_d_231_549" x="0" y="0" width="178" height="178" filterUnits="userSpaceOnUse" color-interpolation-filters="sRGB">
<feFlood flood-opacity="0" result="BackgroundImageFix"/>
<feColorMatrix in="SourceAlpha" type="matrix" values="0 0 0 0 0 0 0 0 0 0 0 0 0 0 0 0 0 0 127 0" result="hardAlpha"/>
<feOffset/>
<feGaussianBlur stdDeviation="7.5"/>
<feComposite in2="hardAlpha" operator="out"/>
<feColorMatrix type="matrix" values="0 0 0 0 0 0 0 0 0 0 0 0 0 0 0 0 0 0 0.25 0"/>
<feBlend mode="normal" in2="BackgroundImageFix" result="effect1_dropShadow_231_549"/>
<feBlend mode="normal" in="SourceGraphic" in2="effect1_dropShadow_231_549" result="shape"/>
</filter>
</defs>
</svg>
