<svg width="72" height="72" viewBox="0 0 72 72" fill="none" xmlns="http://www.w3.org/2000/svg">
<g id="Group 1000002126">
<g id="Group">
<path id="Vector" d="M36 72.0001C55.8823 72.0001 72 55.8823 72 36.0001C72 16.1178 55.8823 0 36 0C16.1177 0 0 16.1178 0 36.0001C0 55.8823 16.1177 72.0001 36 72.0001Z" fill="#448C7F"/>
<g id="Group_2">
<path id="Vector_2" fill-rule="evenodd" clip-rule="evenodd" d="M33.2175 46.3216C32.7765 46.3216 32.7765 48.0016 33.2175 48.0016H40.2825C40.7235 48.0016 40.7235 46.3216 40.275 46.3156C40.275 46.3156 38.19 45.2685 38.073 44.0835C37.98 43.1595 38.958 41.3926 38.958 41.3926C37.191 41.9521 36.309 41.9521 34.542 41.3926C34.542 41.3926 35.5425 43.1746 35.418 44.0941C35.238 45.4201 33.2175 46.3216 33.2175 46.3216Z" fill="#FFCC4D"/>
<path id="Vector_3" fill-rule="evenodd" clip-rule="evenodd" d="M25.5 17.8843C25.5 31.0393 30 41.9998 36.75 41.9998C43.5 41.9998 48 31.0378 48 17.8843H25.5ZM33.15 47.9998H40.35C40.35 52.0003 41.25 52.0003 43.5 53.9998H30C32.25 52.0003 33.15 52.0003 33.15 47.9998Z" fill="#FFCC4D"/>
<path id="Vector_4" d="M43.542 54H30V57H43.542V54Z" fill="#FFCC4D"/>
<path id="Vector_5" d="M44.7765 57H28.7235C28.6 57 28.5 57.1 28.5 57.2234V59.7764C28.5 59.8999 28.6 60 28.7235 60H44.7765C44.9 60 45 59.8999 45 59.7764V57.2234C45 57.1 44.9 57 44.7765 57Z" fill="#FFCC4D"/>
<path id="Vector_6" fill-rule="evenodd" clip-rule="evenodd" d="M25.6155 16.5H15C15 30.5625 25.05 37.3215 31.3155 39M28.833 35.5499C25.95 33.8849 18.45 27.75 18.45 19.5H25.6155M47.5845 16.5H58.5C58.5 30.5625 48.45 37.3215 42.1845 39M44.667 35.5499C47.55 33.8849 55.05 27.75 55.05 19.5H47.5845" fill="#FFCC4D"/>
<path id="Vector_7" fill-rule="evenodd" clip-rule="evenodd" d="M25.5 13.5V17.8845H48V13.5H25.5Z" fill="#FFCC4D"/>
</g>
</g>
</g>
</svg>
