<?xml version="1.0" encoding="UTF-8"?>
<svg xmlns="http://www.w3.org/2000/svg" xmlns:xlink="http://www.w3.org/1999/xlink" width="80px" height="80px" viewBox="0 0 80 80" version="1.1">
<g id="surface1">
<path style=" stroke:none;fill-rule:evenodd;fill:rgb(0%,46.27451%,67.843137%);fill-opacity:1;" d="M 39.929688 0 C 29.523438 0 19.546875 4.214844 12.1875 11.714844 C 4.832031 19.21875 0.699219 29.390625 0.699219 40 C 0.699219 50.609375 4.832031 60.78125 12.1875 68.285156 C 19.546875 75.785156 29.523438 80 39.929688 80 C 50.332031 80 60.308594 75.785156 67.667969 68.285156 C 75.023438 60.78125 79.15625 50.609375 79.15625 40 C 79.15625 34.746094 78.140625 29.546875 76.171875 24.691406 C 74.199219 19.839844 71.308594 15.429688 67.667969 11.714844 C 60.308594 4.214844 50.332031 0 39.929688 0 Z M 40.246094 20.066406 C 41.640625 20.089844 43.042969 20.269531 44.425781 20.601562 C 44.488281 20.617188 44.546875 20.644531 44.597656 20.683594 C 44.652344 20.71875 44.695312 20.769531 44.730469 20.824219 C 44.761719 20.882812 44.785156 20.941406 44.796875 21.007812 C 44.804688 21.074219 44.804688 21.140625 44.789062 21.203125 C 44.773438 21.265625 44.746094 21.328125 44.707031 21.378906 C 44.671875 21.433594 44.625 21.480469 44.570312 21.511719 C 44.515625 21.546875 44.453125 21.570312 44.390625 21.582031 C 44.324219 21.589844 44.261719 21.589844 44.199219 21.574219 C 41.601562 20.949219 38.90625 20.898438 36.289062 21.425781 C 33.671875 21.953125 31.195312 23.050781 29.03125 24.636719 C 28.980469 24.675781 28.917969 24.703125 28.855469 24.71875 C 28.792969 24.734375 28.730469 24.734375 28.664062 24.726562 C 28.601562 24.714844 28.539062 24.691406 28.484375 24.65625 C 28.429688 24.621094 28.382812 24.578125 28.347656 24.523438 C 28.308594 24.46875 28.28125 24.410156 28.265625 24.34375 C 28.253906 24.28125 28.25 24.214844 28.261719 24.152344 C 28.269531 24.085938 28.292969 24.023438 28.328125 23.96875 C 28.363281 23.910156 28.40625 23.863281 28.457031 23.824219 C 31.886719 21.3125 36.023438 19.992188 40.246094 20.066406 Z M 47.109375 21.496094 C 47.171875 21.5 47.238281 21.511719 47.296875 21.539062 C 51.246094 23.175781 54.5625 26.082031 56.75 29.8125 C 58.933594 33.546875 59.867188 37.902344 59.40625 42.222656 C 59.402344 42.289062 59.382812 42.351562 59.351562 42.410156 C 59.320312 42.46875 59.28125 42.523438 59.230469 42.566406 C 59.179688 42.605469 59.121094 42.636719 59.058594 42.65625 C 58.996094 42.675781 58.929688 42.683594 58.867188 42.675781 C 58.800781 42.667969 58.738281 42.648438 58.679688 42.613281 C 58.625 42.582031 58.574219 42.539062 58.535156 42.488281 C 58.492188 42.433594 58.464844 42.375 58.445312 42.3125 C 58.429688 42.246094 58.425781 42.179688 58.433594 42.113281 C 58.871094 38.011719 57.984375 33.871094 55.90625 30.324219 C 53.832031 26.78125 50.679688 24.019531 46.929688 22.464844 C 46.820312 22.421875 46.730469 22.34375 46.675781 22.242188 C 46.621094 22.140625 46.601562 22.019531 46.621094 21.90625 C 46.644531 21.789062 46.703125 21.6875 46.792969 21.613281 C 46.882812 21.539062 46.992188 21.496094 47.109375 21.496094 Z M 39.722656 22.953125 C 42.363281 22.921875 44.980469 23.53125 47.355469 24.734375 C 47.414062 24.761719 47.46875 24.800781 47.511719 24.851562 C 47.550781 24.902344 47.585938 24.957031 47.605469 25.019531 C 47.628906 25.082031 47.636719 25.148438 47.632812 25.214844 C 47.628906 25.28125 47.609375 25.34375 47.582031 25.40625 C 47.554688 25.464844 47.511719 25.515625 47.464844 25.558594 C 47.414062 25.601562 47.359375 25.636719 47.296875 25.65625 C 47.234375 25.675781 47.171875 25.6875 47.105469 25.679688 C 47.042969 25.675781 46.980469 25.660156 46.921875 25.628906 C 44.363281 24.335938 41.511719 23.773438 38.664062 24.003906 C 38.601562 24.011719 38.535156 24.003906 38.46875 23.984375 C 38.40625 23.96875 38.347656 23.933594 38.296875 23.894531 C 38.246094 23.851562 38.203125 23.796875 38.171875 23.738281 C 38.140625 23.675781 38.121094 23.613281 38.117188 23.542969 C 38.113281 23.476562 38.121094 23.410156 38.140625 23.347656 C 38.164062 23.28125 38.195312 23.222656 38.242188 23.171875 C 38.285156 23.121094 38.339844 23.082031 38.398438 23.054688 C 38.457031 23.023438 38.523438 23.007812 38.589844 23.007812 C 38.96875 22.976562 39.34375 22.953125 39.722656 22.953125 Z M 35.691406 23.515625 L 35.695312 23.515625 C 35.8125 23.515625 35.929688 23.5625 36.019531 23.640625 C 36.105469 23.722656 36.164062 23.832031 36.179688 23.953125 C 36.195312 24.074219 36.164062 24.195312 36.097656 24.296875 C 36.03125 24.398438 35.929688 24.46875 35.816406 24.5 C 32.457031 25.417969 29.488281 27.441406 27.371094 30.253906 C 25.253906 33.066406 24.105469 36.515625 24.105469 40.0625 C 24.105469 42.121094 24.28125 43.128906 24.054688 45.132812 C 24.054688 45.136719 24.054688 45.140625 24.054688 45.144531 C 23.90625 46.261719 23.429688 47.304688 22.683594 48.140625 C 22.597656 48.238281 22.476562 48.296875 22.34375 48.300781 C 22.214844 48.308594 22.089844 48.261719 21.992188 48.171875 C 21.894531 48.082031 21.839844 47.957031 21.832031 47.824219 C 21.824219 47.691406 21.871094 47.5625 21.960938 47.464844 C 22.570312 46.78125 22.960938 45.929688 23.085938 45.015625 C 23.296875 43.109375 23.125 42.175781 23.125 40.0625 C 23.128906 36.296875 24.347656 32.636719 26.59375 29.648438 C 28.84375 26.660156 31.996094 24.511719 35.5625 23.539062 C 35.605469 23.527344 35.648438 23.519531 35.691406 23.519531 Z M 26.375 25.769531 C 26.472656 25.769531 26.570312 25.796875 26.652344 25.851562 C 26.738281 25.90625 26.800781 25.984375 26.839844 26.074219 C 26.878906 26.167969 26.886719 26.269531 26.867188 26.371094 C 26.847656 26.46875 26.800781 26.558594 26.730469 26.628906 C 24.609375 28.792969 23.03125 31.445312 22.132812 34.363281 C 21.230469 37.28125 21.035156 40.378906 21.5625 43.390625 C 21.574219 43.453125 21.574219 43.523438 21.5625 43.589844 C 21.550781 43.652344 21.523438 43.714844 21.488281 43.773438 C 21.453125 43.828125 21.402344 43.875 21.347656 43.910156 C 21.292969 43.949219 21.230469 43.972656 21.167969 43.984375 C 21.101562 43.996094 21.035156 43.996094 20.972656 43.980469 C 20.90625 43.964844 20.847656 43.9375 20.792969 43.898438 C 20.742188 43.859375 20.695312 43.808594 20.660156 43.75 C 20.628906 43.695312 20.605469 43.628906 20.597656 43.5625 C 20.042969 40.394531 20.25 37.136719 21.195312 34.0625 C 22.144531 30.992188 23.804688 28.199219 26.039062 25.921875 C 26.125 25.828125 26.246094 25.773438 26.375 25.769531 Z M 39.800781 25.839844 C 40.921875 25.828125 42.058594 25.957031 43.183594 26.234375 C 46.113281 26.957031 48.730469 28.625 50.652344 30.992188 C 52.570312 33.355469 53.691406 36.292969 53.839844 39.359375 C 53.84375 39.425781 53.832031 39.492188 53.8125 39.550781 C 53.789062 39.613281 53.753906 39.671875 53.710938 39.71875 C 53.667969 39.769531 53.617188 39.808594 53.558594 39.835938 C 53.5 39.863281 53.4375 39.882812 53.375 39.882812 C 53.308594 39.886719 53.246094 39.878906 53.183594 39.855469 C 53.121094 39.835938 53.066406 39.800781 53.019531 39.757812 C 52.972656 39.710938 52.933594 39.660156 52.90625 39.597656 C 52.878906 39.539062 52.859375 39.476562 52.859375 39.410156 C 52.722656 36.558594 51.683594 33.828125 49.898438 31.628906 C 48.113281 29.429688 45.675781 27.878906 42.953125 27.210938 C 40.234375 26.539062 37.371094 26.78125 34.796875 27.90625 C 32.222656 29.03125 30.078125 30.976562 28.675781 33.449219 C 28.648438 33.507812 28.605469 33.5625 28.554688 33.605469 C 28.503906 33.648438 28.441406 33.679688 28.378906 33.699219 C 28.316406 33.714844 28.25 33.722656 28.183594 33.714844 C 28.117188 33.707031 28.054688 33.683594 27.996094 33.648438 C 27.941406 33.617188 27.890625 33.570312 27.851562 33.515625 C 27.8125 33.464844 27.78125 33.402344 27.765625 33.335938 C 27.75 33.269531 27.75 33.203125 27.757812 33.136719 C 27.769531 33.070312 27.792969 33.007812 27.828125 32.949219 C 29.042969 30.804688 30.789062 29.019531 32.890625 27.773438 C 34.988281 26.523438 37.371094 25.855469 39.800781 25.839844 Z M 49.644531 26.265625 C 49.761719 26.257812 49.875 26.296875 49.964844 26.367188 C 52.753906 28.496094 54.824219 31.457031 55.886719 34.839844 C 55.910156 34.902344 55.921875 34.972656 55.917969 35.039062 C 55.914062 35.105469 55.898438 35.175781 55.871094 35.234375 C 55.839844 35.296875 55.800781 35.351562 55.75 35.394531 C 55.699219 35.441406 55.640625 35.472656 55.578125 35.496094 C 55.515625 35.515625 55.445312 35.523438 55.378906 35.515625 C 55.3125 35.511719 55.25 35.488281 55.191406 35.457031 C 55.132812 35.421875 55.082031 35.378906 55.039062 35.324219 C 55 35.273438 54.96875 35.210938 54.953125 35.144531 C 53.953125 31.960938 52.003906 29.171875 49.378906 27.167969 C 49.292969 27.105469 49.234375 27.019531 49.199219 26.921875 C 49.167969 26.824219 49.167969 26.71875 49.195312 26.617188 C 49.226562 26.519531 49.285156 26.429688 49.367188 26.367188 C 49.445312 26.304688 49.542969 26.269531 49.644531 26.265625 Z M 39.90625 28.730469 C 40.039062 28.730469 40.164062 28.78125 40.253906 28.875 C 40.347656 28.96875 40.398438 29.097656 40.398438 29.230469 C 40.398438 29.363281 40.347656 29.488281 40.253906 29.582031 C 40.164062 29.675781 40.039062 29.730469 39.90625 29.730469 C 38.40625 29.730469 36.921875 30.070312 35.5625 30.726562 C 34.207031 31.382812 33.007812 32.339844 32.058594 33.527344 C 31.105469 34.714844 30.425781 36.101562 30.066406 37.589844 C 29.707031 39.074219 29.675781 40.625 29.976562 42.128906 C 29.992188 42.191406 29.992188 42.257812 29.976562 42.324219 C 29.964844 42.386719 29.941406 42.449219 29.90625 42.503906 C 29.871094 42.558594 29.824219 42.605469 29.769531 42.640625 C 29.71875 42.679688 29.65625 42.703125 29.59375 42.71875 C 29.53125 42.730469 29.464844 42.730469 29.402344 42.71875 C 29.339844 42.707031 29.28125 42.679688 29.226562 42.644531 C 29.171875 42.609375 29.125 42.5625 29.089844 42.507812 C 29.054688 42.453125 29.03125 42.390625 29.015625 42.328125 C 28.6875 40.679688 28.722656 38.980469 29.117188 37.347656 C 29.511719 35.71875 30.257812 34.195312 31.300781 32.894531 C 32.34375 31.59375 33.65625 30.542969 35.144531 29.824219 C 36.632812 29.105469 38.257812 28.730469 39.90625 28.730469 Z M 43.128906 29.230469 C 43.175781 29.234375 43.226562 29.242188 43.269531 29.261719 C 45.519531 29.988281 47.480469 31.429688 48.875 33.371094 C 50.265625 35.308594 51.019531 37.652344 51.019531 40.058594 C 51.074219 42.746094 51.066406 45.558594 50.796875 48.046875 C 50.78125 48.179688 50.71875 48.300781 50.617188 48.382812 C 50.515625 48.464844 50.386719 48.503906 50.253906 48.492188 C 50.125 48.476562 50.007812 48.410156 49.925781 48.304688 C 49.84375 48.203125 49.808594 48.070312 49.820312 47.9375 C 50.085938 45.527344 50.09375 42.742188 50.039062 40.070312 C 50.039062 40.066406 50.039062 40.0625 50.039062 40.058594 C 50.039062 35.558594 47.183594 31.578125 42.976562 30.214844 C 42.867188 30.179688 42.769531 30.109375 42.707031 30.011719 C 42.640625 29.914062 42.613281 29.796875 42.625 29.679688 C 42.636719 29.5625 42.691406 29.453125 42.773438 29.371094 C 42.855469 29.292969 42.964844 29.242188 43.078125 29.234375 C 43.09375 29.234375 43.113281 29.234375 43.128906 29.234375 Z M 39.433594 31.632812 C 39.789062 31.609375 40.148438 31.617188 40.503906 31.640625 C 41.957031 31.75 43.351562 32.242188 44.554688 33.074219 C 44.613281 33.113281 44.660156 33.160156 44.695312 33.214844 C 44.734375 33.269531 44.761719 33.332031 44.773438 33.394531 C 44.785156 33.460938 44.785156 33.527344 44.773438 33.59375 C 44.761719 33.660156 44.734375 33.722656 44.699219 33.777344 C 44.664062 33.832031 44.613281 33.878906 44.558594 33.917969 C 44.503906 33.953125 44.445312 33.976562 44.378906 33.988281 C 44.316406 34.003906 44.25 34 44.183594 33.984375 C 44.121094 33.972656 44.058594 33.941406 44.007812 33.902344 C 42.945312 33.167969 41.714844 32.734375 40.433594 32.640625 C 39.15625 32.546875 37.875 32.796875 36.71875 33.367188 C 36.664062 33.394531 36.597656 33.414062 36.535156 33.417969 C 36.46875 33.421875 36.40625 33.410156 36.34375 33.390625 C 36.285156 33.367188 36.226562 33.335938 36.179688 33.289062 C 36.132812 33.246094 36.09375 33.195312 36.066406 33.136719 C 36.035156 33.074219 36.019531 33.011719 36.015625 32.945312 C 36.011719 32.878906 36.023438 32.816406 36.042969 32.753906 C 36.0625 32.691406 36.097656 32.632812 36.140625 32.585938 C 36.183594 32.535156 36.234375 32.496094 36.292969 32.46875 C 37.273438 31.980469 38.34375 31.695312 39.433594 31.632812 Z M 34.390625 33.941406 C 34.488281 33.9375 34.585938 33.964844 34.667969 34.019531 C 34.753906 34.074219 34.816406 34.152344 34.855469 34.246094 C 34.894531 34.339844 34.90625 34.441406 34.886719 34.542969 C 34.867188 34.640625 34.816406 34.730469 34.746094 34.800781 C 33.375 36.195312 32.605469 38.089844 32.605469 40.0625 L 32.605469 43.378906 C 32.605469 47.890625 30.773438 52.066406 27.726562 55.109375 C 27.683594 55.160156 27.628906 55.199219 27.566406 55.226562 C 27.507812 55.253906 27.441406 55.269531 27.375 55.269531 C 27.308594 55.269531 27.242188 55.257812 27.183594 55.230469 C 27.121094 55.203125 27.066406 55.167969 27.019531 55.117188 C 26.972656 55.070312 26.9375 55.015625 26.914062 54.949219 C 26.890625 54.886719 26.878906 54.820312 26.878906 54.753906 C 26.882812 54.6875 26.898438 54.621094 26.925781 54.558594 C 26.953125 54.496094 26.992188 54.441406 27.039062 54.398438 C 29.90625 51.53125 31.625 47.613281 31.625 43.378906 L 31.625 40.0625 C 31.625 37.824219 32.5 35.675781 34.050781 34.09375 C 34.140625 34 34.261719 33.945312 34.390625 33.941406 Z M 39.90625 34.515625 L 39.90625 34.519531 C 39.96875 34.519531 40.03125 34.53125 40.089844 34.558594 C 43 34.660156 45.351562 37.078125 45.351562 40.074219 L 45.351562 41.519531 C 45.351562 44.222656 45.078125 46.921875 44.535156 49.566406 C 44.507812 49.695312 44.429688 49.808594 44.320312 49.882812 C 44.210938 49.953125 44.078125 49.980469 43.953125 49.953125 C 43.824219 49.925781 43.714844 49.847656 43.640625 49.734375 C 43.570312 49.625 43.546875 49.488281 43.574219 49.359375 C 44.105469 46.78125 44.371094 44.152344 44.371094 41.519531 L 44.371094 40.074219 C 44.375 39.476562 44.257812 38.882812 44.035156 38.328125 C 43.8125 37.777344 43.480469 37.273438 43.066406 36.851562 C 42.652344 36.429688 42.160156 36.09375 41.617188 35.863281 C 41.074219 35.636719 40.496094 35.519531 39.90625 35.519531 C 38.734375 35.519531 37.613281 35.996094 36.78125 36.847656 C 35.953125 37.695312 35.484375 38.847656 35.488281 40.050781 L 35.472656 42.230469 C 35.46875 42.363281 35.417969 42.488281 35.324219 42.582031 C 35.230469 42.675781 35.105469 42.726562 34.976562 42.726562 C 34.847656 42.722656 34.722656 42.667969 34.632812 42.574219 C 34.539062 42.480469 34.488281 42.351562 34.492188 42.21875 L 34.503906 40.039062 C 34.503906 38.574219 35.074219 37.171875 36.085938 36.132812 C 37.054688 35.140625 38.359375 34.597656 39.726562 34.550781 C 39.785156 34.527344 39.84375 34.515625 39.90625 34.515625 Z M 46.394531 35.164062 C 46.476562 35.164062 46.554688 35.183594 46.628906 35.226562 C 46.699219 35.265625 46.761719 35.324219 46.808594 35.394531 C 47.847656 36.992188 48.324219 38.902344 48.15625 40.8125 C 48.144531 40.945312 48.082031 41.066406 47.980469 41.152344 C 47.882812 41.238281 47.753906 41.277344 47.621094 41.265625 C 47.492188 41.253906 47.375 41.191406 47.289062 41.089844 C 47.207031 40.988281 47.167969 40.855469 47.179688 40.722656 C 47.324219 39.039062 46.90625 37.355469 45.988281 35.945312 C 45.9375 35.871094 45.910156 35.785156 45.902344 35.691406 C 45.898438 35.601562 45.917969 35.511719 45.960938 35.429688 C 46 35.351562 46.0625 35.28125 46.140625 35.234375 C 46.214844 35.1875 46.304688 35.164062 46.394531 35.164062 Z M 26.886719 36.003906 C 26.964844 36 27.042969 36.015625 27.117188 36.046875 C 27.1875 36.082031 27.25 36.132812 27.296875 36.195312 C 27.347656 36.257812 27.378906 36.332031 27.394531 36.410156 C 27.410156 36.488281 27.40625 36.566406 27.382812 36.644531 C 27.03125 37.976562 26.886719 39.359375 26.957031 40.738281 C 26.957031 40.742188 26.957031 40.746094 26.957031 40.75 C 27.007812 42.378906 26.921875 42.953125 26.9375 45.128906 C 26.996094 47.378906 25.8125 49.484375 23.867188 50.605469 C 23.753906 50.671875 23.621094 50.6875 23.496094 50.652344 C 23.371094 50.617188 23.265625 50.53125 23.203125 50.417969 C 23.136719 50.300781 23.121094 50.164062 23.15625 50.039062 C 23.191406 49.910156 23.273438 49.804688 23.382812 49.738281 C 25.023438 48.789062 26.003906 47.035156 25.957031 45.152344 C 25.957031 45.148438 25.957031 45.144531 25.957031 45.140625 C 25.941406 42.9375 26.027344 42.371094 25.976562 40.789062 C 25.902344 39.308594 26.058594 37.816406 26.433594 36.382812 C 26.460938 36.28125 26.515625 36.1875 26.597656 36.117188 C 26.679688 36.050781 26.78125 36.011719 26.882812 36.007812 C 26.886719 36.003906 26.886719 36.003906 26.886719 36.003906 Z M 39.90625 37.394531 L 39.90625 37.398438 C 40.601562 37.402344 41.261719 37.683594 41.753906 38.183594 C 42.242188 38.683594 42.519531 39.359375 42.519531 40.066406 C 42.519531 40.199219 42.46875 40.324219 42.375 40.417969 C 42.285156 40.511719 42.160156 40.566406 42.03125 40.566406 C 41.898438 40.566406 41.773438 40.511719 41.683594 40.417969 C 41.589844 40.324219 41.539062 40.199219 41.539062 40.066406 C 41.539062 39.847656 41.5 39.628906 41.417969 39.425781 C 41.335938 39.222656 41.214844 39.039062 41.0625 38.886719 C 40.910156 38.730469 40.730469 38.605469 40.53125 38.523438 C 40.332031 38.441406 40.121094 38.398438 39.90625 38.398438 C 39.691406 38.398438 39.476562 38.441406 39.277344 38.523438 C 39.082031 38.605469 38.898438 38.730469 38.746094 38.886719 C 38.597656 39.039062 38.476562 39.222656 38.394531 39.425781 C 38.3125 39.628906 38.269531 39.847656 38.273438 40.066406 L 38.242188 42.824219 C 38.242188 42.832031 38.242188 42.839844 38.242188 42.847656 C 38.121094 45.636719 37.617188 48.394531 36.75 51.046875 C 36.734375 51.109375 36.703125 51.171875 36.660156 51.222656 C 36.617188 51.273438 36.566406 51.316406 36.507812 51.347656 C 36.449219 51.378906 36.386719 51.398438 36.320312 51.40625 C 36.253906 51.410156 36.1875 51.402344 36.125 51.378906 C 36.0625 51.359375 36.003906 51.324219 35.957031 51.28125 C 35.90625 51.234375 35.867188 51.183594 35.839844 51.121094 C 35.808594 51.058594 35.792969 50.996094 35.789062 50.925781 C 35.789062 50.859375 35.796875 50.792969 35.820312 50.730469 C 36.660156 48.167969 37.144531 45.5 37.261719 42.800781 L 37.292969 40.0625 C 37.292969 38.597656 38.46875 37.394531 39.90625 37.394531 Z M 56.039062 37.414062 C 56.160156 37.40625 56.28125 37.449219 56.378906 37.53125 C 56.472656 37.613281 56.53125 37.730469 56.546875 37.855469 C 56.628906 38.503906 56.675781 39.160156 56.6875 39.816406 C 56.6875 39.820312 56.6875 39.824219 56.6875 39.824219 L 56.6875 42.964844 C 56.6875 46.097656 56.269531 49.214844 55.441406 52.230469 C 55.425781 52.296875 55.398438 52.359375 55.359375 52.414062 C 55.320312 52.46875 55.269531 52.511719 55.210938 52.546875 C 55.15625 52.582031 55.09375 52.605469 55.027344 52.613281 C 54.960938 52.621094 54.894531 52.617188 54.832031 52.597656 C 54.769531 52.578125 54.707031 52.546875 54.65625 52.507812 C 54.605469 52.464844 54.5625 52.410156 54.53125 52.351562 C 54.5 52.292969 54.480469 52.226562 54.476562 52.160156 C 54.46875 52.09375 54.476562 52.027344 54.496094 51.960938 C 55.300781 49.03125 55.707031 46.007812 55.707031 42.964844 L 55.707031 39.835938 C 55.695312 39.21875 55.652344 38.601562 55.574219 37.988281 C 55.566406 37.921875 55.570312 37.851562 55.589844 37.785156 C 55.605469 37.714844 55.636719 37.652344 55.683594 37.601562 C 55.726562 37.546875 55.78125 37.503906 55.839844 37.472656 C 55.902344 37.441406 55.96875 37.421875 56.039062 37.421875 Z M 53.34375 41.753906 C 53.40625 41.75 53.472656 41.761719 53.535156 41.789062 C 53.59375 41.8125 53.652344 41.847656 53.699219 41.894531 C 53.746094 41.941406 53.785156 41.996094 53.808594 42.058594 C 53.835938 42.117188 53.847656 42.183594 53.847656 42.253906 C 53.929688 46.890625 53.21875 51.511719 51.753906 55.90625 C 51.734375 55.96875 51.703125 56.027344 51.660156 56.074219 C 51.617188 56.125 51.566406 56.164062 51.507812 56.195312 C 51.449219 56.222656 51.386719 56.238281 51.320312 56.242188 C 51.257812 56.25 51.191406 56.238281 51.132812 56.21875 C 51.070312 56.199219 51.015625 56.164062 50.964844 56.121094 C 50.917969 56.078125 50.878906 56.023438 50.851562 55.964844 C 50.820312 55.90625 50.804688 55.84375 50.800781 55.777344 C 50.796875 55.710938 50.804688 55.644531 50.824219 55.585938 C 52.253906 51.300781 52.945312 46.792969 52.867188 42.269531 C 52.863281 42.136719 52.910156 42.007812 53 41.910156 C 53.089844 41.816406 53.210938 41.757812 53.34375 41.753906 Z M 41.867188 42.441406 C 41.9375 42.4375 42.003906 42.449219 42.070312 42.476562 C 42.132812 42.503906 42.191406 42.546875 42.242188 42.597656 C 42.289062 42.648438 42.324219 42.710938 42.347656 42.777344 C 42.371094 42.84375 42.378906 42.914062 42.371094 42.984375 C 41.921875 48.863281 40.085938 54.539062 37.023438 59.539062 C 36.988281 59.59375 36.945312 59.644531 36.890625 59.679688 C 36.839844 59.71875 36.78125 59.746094 36.71875 59.761719 C 36.65625 59.777344 36.589844 59.78125 36.527344 59.769531 C 36.464844 59.757812 36.402344 59.734375 36.347656 59.699219 C 36.292969 59.664062 36.246094 59.621094 36.207031 59.566406 C 36.171875 59.515625 36.144531 59.453125 36.128906 59.390625 C 36.113281 59.324219 36.113281 59.257812 36.121094 59.195312 C 36.132812 59.128906 36.15625 59.066406 36.191406 59.011719 C 39.167969 54.148438 40.957031 48.625 41.394531 42.90625 C 41.402344 42.785156 41.457031 42.667969 41.542969 42.582031 C 41.628906 42.496094 41.746094 42.445312 41.867188 42.441406 Z M 47.695312 43.191406 C 47.757812 43.191406 47.824219 43.203125 47.882812 43.230469 C 47.945312 43.257812 48 43.296875 48.046875 43.34375 C 48.089844 43.394531 48.125 43.449219 48.148438 43.511719 C 48.171875 43.574219 48.183594 43.640625 48.183594 43.710938 C 48.082031 49.078125 46.90625 54.371094 44.734375 59.265625 C 44.707031 59.328125 44.671875 59.382812 44.625 59.429688 C 44.578125 59.476562 44.519531 59.515625 44.460938 59.539062 C 44.398438 59.5625 44.332031 59.574219 44.265625 59.574219 C 44.199219 59.574219 44.136719 59.558594 44.078125 59.53125 C 44.015625 59.5 43.960938 59.460938 43.917969 59.414062 C 43.875 59.363281 43.839844 59.304688 43.816406 59.242188 C 43.792969 59.179688 43.785156 59.109375 43.789062 59.042969 C 43.792969 58.976562 43.8125 58.910156 43.839844 58.851562 C 45.960938 54.082031 47.105469 48.921875 47.203125 43.6875 C 47.203125 43.554688 47.253906 43.429688 47.347656 43.335938 C 47.4375 43.242188 47.5625 43.191406 47.695312 43.191406 Z M 29.234375 44.625 C 29.304688 44.621094 29.375 44.632812 29.441406 44.660156 C 29.503906 44.6875 29.5625 44.726562 29.613281 44.777344 C 29.660156 44.828125 29.699219 44.890625 29.722656 44.957031 C 29.746094 45.023438 29.753906 45.09375 29.75 45.164062 C 29.644531 46.707031 29.234375 48.210938 28.542969 49.585938 C 27.847656 50.960938 26.886719 52.175781 25.714844 53.15625 C 25.664062 53.203125 25.605469 53.238281 25.542969 53.261719 C 25.480469 53.285156 25.414062 53.296875 25.347656 53.289062 C 25.28125 53.285156 25.214844 53.265625 25.15625 53.234375 C 25.097656 53.207031 25.042969 53.160156 25 53.109375 C 24.957031 53.054688 24.925781 52.996094 24.910156 52.929688 C 24.890625 52.863281 24.886719 52.796875 24.894531 52.726562 C 24.902344 52.660156 24.925781 52.59375 24.957031 52.535156 C 24.992188 52.476562 25.039062 52.425781 25.089844 52.386719 C 26.160156 51.492188 27.039062 50.382812 27.671875 49.128906 C 28.300781 47.875 28.675781 46.503906 28.769531 45.097656 C 28.777344 44.972656 28.828125 44.855469 28.914062 44.769531 C 29 44.683594 29.113281 44.628906 29.234375 44.625 Z M 34.617188 44.632812 C 34.691406 44.628906 34.765625 44.640625 34.835938 44.671875 C 34.902344 44.699219 34.964844 44.742188 35.011719 44.800781 C 35.0625 44.855469 35.097656 44.921875 35.121094 44.996094 C 35.140625 45.066406 35.144531 45.144531 35.128906 45.21875 C 34.472656 49.480469 32.789062 53.507812 30.234375 56.941406 C 30.195312 56.996094 30.148438 57.042969 30.09375 57.078125 C 30.035156 57.117188 29.972656 57.140625 29.910156 57.148438 C 29.84375 57.160156 29.777344 57.15625 29.714844 57.140625 C 29.648438 57.125 29.589844 57.09375 29.539062 57.054688 C 29.484375 57.011719 29.441406 56.960938 29.410156 56.90625 C 29.375 56.847656 29.355469 56.78125 29.347656 56.714844 C 29.339844 56.648438 29.34375 56.582031 29.363281 56.515625 C 29.378906 56.453125 29.410156 56.390625 29.453125 56.339844 C 31.910156 53.035156 33.527344 49.160156 34.160156 45.0625 C 34.175781 44.949219 34.230469 44.84375 34.3125 44.765625 C 34.398438 44.6875 34.503906 44.640625 34.617188 44.636719 Z M 49.859375 50.402344 C 49.933594 50.402344 50.003906 50.417969 50.074219 50.449219 C 50.140625 50.480469 50.199219 50.527344 50.246094 50.585938 C 50.292969 50.640625 50.324219 50.710938 50.34375 50.785156 C 50.359375 50.855469 50.363281 50.933594 50.347656 51.007812 C 49.871094 53.429688 49.148438 55.792969 48.195312 58.0625 C 48.171875 58.128906 48.132812 58.183594 48.089844 58.234375 C 48.042969 58.28125 47.988281 58.320312 47.925781 58.347656 C 47.867188 58.375 47.800781 58.386719 47.734375 58.386719 C 47.667969 58.386719 47.601562 58.375 47.542969 58.347656 C 47.480469 58.320312 47.425781 58.28125 47.378906 58.234375 C 47.332031 58.183594 47.296875 58.125 47.273438 58.0625 C 47.253906 58 47.242188 57.933594 47.246094 57.863281 C 47.246094 57.796875 47.265625 57.730469 47.292969 57.671875 C 48.222656 55.464844 48.921875 53.164062 49.386719 50.808594 C 49.40625 50.695312 49.464844 50.59375 49.550781 50.519531 C 49.636719 50.445312 49.746094 50.402344 49.859375 50.402344 Z M 43.335938 51.839844 C 43.410156 51.835938 43.488281 51.851562 43.558594 51.886719 C 43.628906 51.921875 43.691406 51.972656 43.738281 52.035156 C 43.785156 52.097656 43.816406 52.171875 43.832031 52.25 C 43.84375 52.328125 43.839844 52.40625 43.816406 52.484375 C 43.089844 55.019531 42.117188 57.472656 40.90625 59.808594 C 40.875 59.867188 40.835938 59.917969 40.785156 59.960938 C 40.734375 60 40.679688 60.03125 40.617188 60.050781 C 40.554688 60.070312 40.488281 60.078125 40.425781 60.074219 C 40.363281 60.066406 40.300781 60.046875 40.242188 60.015625 C 40.183594 59.984375 40.136719 59.945312 40.09375 59.894531 C 40.050781 59.84375 40.023438 59.785156 40.003906 59.722656 C 39.984375 59.660156 39.976562 59.59375 39.984375 59.527344 C 39.988281 59.460938 40.007812 59.398438 40.039062 59.339844 C 41.21875 57.066406 42.167969 54.671875 42.875 52.203125 C 42.902344 52.101562 42.964844 52.007812 43.046875 51.945312 C 43.128906 51.878906 43.230469 51.839844 43.335938 51.839844 Z M 35.125 53.296875 C 35.140625 53.296875 35.15625 53.296875 35.171875 53.296875 C 35.253906 53.296875 35.335938 53.320312 35.40625 53.359375 C 35.480469 53.402344 35.539062 53.460938 35.582031 53.53125 C 35.625 53.601562 35.652344 53.683594 35.65625 53.765625 C 35.660156 53.851562 35.644531 53.933594 35.609375 54.011719 C 34.917969 55.554688 34.101562 57.039062 33.164062 58.441406 C 33.128906 58.5 33.085938 58.550781 33.03125 58.589844 C 32.976562 58.628906 32.914062 58.65625 32.851562 58.667969 C 32.785156 58.683594 32.71875 58.683594 32.652344 58.671875 C 32.589844 58.65625 32.527344 58.632812 32.472656 58.59375 C 32.417969 58.554688 32.371094 58.507812 32.335938 58.449219 C 32.300781 58.394531 32.273438 58.328125 32.265625 58.261719 C 32.253906 58.195312 32.253906 58.128906 32.269531 58.0625 C 32.285156 57.996094 32.316406 57.933594 32.355469 57.882812 C 33.261719 56.523438 34.050781 55.089844 34.71875 53.597656 C 34.753906 53.511719 34.808594 53.441406 34.882812 53.390625 C 34.953125 53.335938 35.035156 53.304688 35.125 53.296875 Z M 35.125 53.296875 "/>
</g>
</svg>
