<svg width="70" height="70" viewBox="0 0 70 70" fill="none" xmlns="http://www.w3.org/2000/svg">
<g id="Group">
<path id="Vector" d="M70 35C70 54.3303 54.3303 70 35 70C15.6718 70 0 54.3303 0 35C0 15.6718 15.6718 0 35 0C54.3303 0 70 15.6718 70 35Z" fill="#FFCC4D"/>
<path id="Vector_2" d="M18.53 24.7059C18.53 24.7059 18.53 20.5883 22.6477 20.5883C26.7653 20.5883 26.7653 24.7059 26.7653 24.7059V28.8236C26.7653 28.8236 26.7653 32.9412 22.6477 32.9412C18.53 32.9412 18.53 28.8236 18.53 28.8236V24.7059ZM43.2359 24.7059C43.2359 24.7059 43.2359 20.5883 47.3536 20.5883C51.4712 20.5883 51.4712 24.7059 51.4712 24.7059V28.8236C51.4712 28.8236 51.4712 32.9412 47.3536 32.9412C43.2359 32.9412 43.2359 28.8236 43.2359 28.8236V24.7059ZM54.2197 44.5303C54.0424 44.3707 53.8151 44.2775 53.5767 44.2666C53.3384 44.2557 53.1036 44.3278 52.9124 44.4706C52.8321 44.5303 44.8377 50.4412 35.0006 50.4412C25.1883 50.4412 17.1671 44.5303 17.0889 44.4706C16.898 44.3273 16.6632 44.2548 16.4248 44.2655C16.1863 44.2762 15.959 44.3694 15.7817 44.5292C15.6043 44.689 15.4881 44.9054 15.4527 45.1415C15.4174 45.3775 15.4652 45.6186 15.588 45.8233C15.8536 46.2659 22.2112 56.6177 35.0006 56.6177C47.79 56.6177 54.1497 46.2659 54.4133 45.8233C54.5361 45.6188 54.584 45.3779 54.5487 45.142C54.5134 44.9061 54.3971 44.6899 54.2197 44.5303Z" fill="#664500"/>
</g>
</svg>
