<svg width="134" height="179" viewBox="0 0 134 179" fill="none" xmlns="http://www.w3.org/2000/svg">
<path id="Vector" d="M92.9675 42.4806C86.8754 42.9315 61.0784 49.3336 54.5927 50.9906C51.9531 49.7306 49.4174 48.2667 47.0089 46.6125C43.8552 44.5446 41.1316 42.7588 37.8086 42.4992C32.6737 42.0968 27.5125 42.8226 22.6924 44.6247C17.8722 46.4269 13.5116 49.2612 9.92075 52.9261C6.32993 56.5909 3.59721 60.9961 1.91704 65.8281C0.23688 70.6602 -0.349422 75.8004 0.19986 80.883C2.28048 99.6717 9.37387 137.016 33.516 176.023C34.1322 177.018 35.0296 177.81 36.0963 178.303C37.163 178.795 38.3521 178.965 39.5155 178.792C40.6789 178.619 41.7654 178.11 42.6396 177.329C43.5138 176.547 44.1372 175.528 44.4323 174.398L46.9473 164.726C49.5182 154.862 54.6016 145.82 61.7092 138.469L62.5486 137.601C63.0224 137.112 63.6721 136.829 64.3555 136.815C65.0388 136.8 65.7001 137.055 66.1947 137.523L67.2105 138.487C74.9848 145.87 80.6068 155.199 83.4834 165.488L86.0403 174.638C86.3431 175.759 86.9737 176.765 87.8525 177.531C88.7312 178.296 89.8188 178.786 90.9778 178.938C91.2676 178.979 91.5598 179 91.8525 179C92.8733 179.002 93.8772 178.742 94.7666 178.245C95.6559 177.748 96.4003 177.03 96.9272 176.163C121.147 137.079 128.252 99.6721 130.333 80.8499C130.886 75.788 130.311 70.6673 128.648 65.8508C126.984 61.0342 124.274 56.6396 120.709 52.9783C117.143 49.3171 112.81 46.4788 108.016 44.6647C103.222 42.8505 98.0849 42.1049 92.9683 42.4806H92.9675ZM124.096 80.1714C122.083 98.3863 115.225 134.513 91.9133 172.366L89.5265 163.825C86.3483 152.455 80.1364 142.147 71.5462 133.99L70.5304 133.025C68.8341 131.42 66.5662 130.546 64.2225 130.595C61.8789 130.644 59.6503 131.612 58.0239 133.288L57.1842 134.155C49.3309 142.28 43.7147 152.271 40.8748 163.17L38.5225 172.215C15.2946 134.443 8.44941 98.3855 6.43622 80.2029C5.98776 76.031 6.4711 71.8123 7.85188 67.8468C9.23266 63.8813 11.477 60.2664 14.4251 57.2593C17.3733 54.2522 20.953 51.9266 24.9095 50.4481C28.8661 48.9696 33.1023 48.3744 37.3169 48.7049C39.0255 48.8387 41.023 50.1483 43.5506 51.8061C50.5013 56.3636 61.0059 63.2509 84.9328 60.2827C85.3437 60.2346 85.7409 60.1063 86.1016 59.9052C86.4622 59.7041 86.7793 59.4342 87.0344 59.111C87.2895 58.7877 87.4777 58.4176 87.5881 58.022C87.6984 57.6263 87.7288 57.2128 87.6775 56.8054C87.6262 56.398 87.4941 56.0047 87.289 55.6482C87.0838 55.2917 86.8097 54.9789 86.4822 54.728C86.1547 54.4771 85.7805 54.2929 85.381 54.1862C84.9815 54.0794 84.5647 54.0521 84.1546 54.1059C77.1725 54.9719 71.5117 54.9459 66.8227 54.3677C77.0592 51.8897 89.8726 48.9519 93.4344 48.6874C97.6328 48.3797 101.848 48.9919 105.781 50.4806C109.715 51.9693 113.27 54.2981 116.196 57.302C119.122 60.3059 121.346 63.9115 122.711 67.8634C124.077 71.8152 124.55 76.0167 124.097 80.1702L124.096 80.1714ZM100.284 15.9517C99.4517 15.9517 98.654 16.2796 98.0658 16.8633C97.4776 17.4471 97.1471 18.2387 97.1471 19.0642V22.9549H93.6187C92.7869 22.9549 91.9891 23.2828 91.4009 23.8665C90.8127 24.4503 90.4823 25.2419 90.4823 26.0674C90.4823 26.8929 90.8127 27.6846 91.4009 28.2683C91.9891 28.852 92.7869 29.18 93.6187 29.18H97.1471V32.6816C97.1471 33.507 97.4776 34.2987 98.0658 34.8824C98.654 35.4662 99.4517 35.7941 100.284 35.7941C101.115 35.7941 101.913 35.4662 102.501 34.8824C103.09 34.2987 103.42 33.507 103.42 32.6816V29.18H107.34C108.172 29.18 108.97 28.852 109.558 28.2683C110.146 27.6846 110.477 26.8929 110.477 26.0674C110.477 25.2419 110.146 24.4503 109.558 23.8665C108.97 23.2828 108.172 22.9549 107.34 22.9549H103.42V19.0642C103.42 18.2387 103.09 17.4471 102.501 16.8633C101.913 16.2796 101.115 15.9517 100.284 15.9517ZM130.864 7.00319H126.943V3.11253C126.943 2.28703 126.613 1.49535 126.024 0.911638C125.436 0.327926 124.638 0 123.807 0C122.975 0 122.177 0.327926 121.589 0.911638C121.001 1.49535 120.67 2.28703 120.67 3.11253V7.00319H117.142C116.31 7.00319 115.512 7.33112 114.924 7.91483C114.336 8.49854 114.005 9.29023 114.005 10.1157C114.005 10.9412 114.336 11.7329 114.924 12.3166C115.512 12.9003 116.31 13.2282 117.142 13.2282H120.67V16.7298C120.67 17.5553 121.001 18.347 121.589 18.9307C122.177 19.5144 122.975 19.8424 123.807 19.8424C124.638 19.8424 125.436 19.5144 126.024 18.9307C126.613 18.347 126.943 17.5553 126.943 16.7298V13.2282H130.864C131.695 13.2282 132.493 12.9003 133.081 12.3166C133.67 11.7329 134 10.9412 134 10.1157C134 9.29023 133.67 8.49854 133.081 7.91483C132.493 7.33112 131.695 7.00319 130.864 7.00319ZM130.864 34.6269H126.943V30.7362C126.943 29.9107 126.613 29.119 126.024 28.5353C125.436 27.9516 124.638 27.6237 123.807 27.6237C122.975 27.6237 122.177 27.9516 121.589 28.5353C121.001 29.119 120.67 29.9107 120.67 30.7362V34.6269H117.142C116.31 34.6269 115.512 34.9548 114.924 35.5385C114.336 36.1222 114.005 36.9139 114.005 37.7394C114.005 38.5649 114.336 39.3566 114.924 39.9403C115.512 40.524 116.31 40.8519 117.142 40.8519H120.67V44.3535C120.67 45.179 121.001 45.9707 121.589 46.5544C122.177 47.1381 122.975 47.4661 123.807 47.4661C124.638 47.4661 125.436 47.1381 126.024 46.5544C126.613 45.9707 126.943 45.179 126.943 44.3535V40.8519H130.864C131.695 40.8519 132.493 40.524 133.081 39.9403C133.67 39.3566 134 38.5649 134 37.7394C134 36.9139 133.67 36.1222 133.081 35.5385C132.493 34.9548 131.695 34.6269 130.864 34.6269Z" fill="#448C7F"/>
</svg>
